<svg id="Ebene_1" data-name="Ebene 1" xmlns="http://www.w3.org/2000/svg" viewBox="0 0 75.12 137.5"><path d="M32.32,55.79c13-8.42,27.93-21.29,27.13-38,1.14-3.21,1.41,2.7,1.48,3.81,3-12.72-15-2.7-17.85,4.43,1.05-4.74,5-6.64,8.63-9.36H49.54c.92-.61,2.31-.34,3-1.48-1.9-.7-5.71,3.83-4,1.29a25,25,0,0,0-8.48,5.38c3.08-4.72,8.89-6.39,14-8C32,13.51,32.75,39.64,24,53.23,30.31,51.08,34.39,38.94,38.09,32c-3.52,11.4-10,21.6-20.77,27.33,5.11-4.28,9.51-9.91,10.45-16.64-1.52,1.79-5.52,10.14-5.9,8.38,6.66-10.76,4.89-19.68,13.22-30-3.19,2.56-5.2,6.08-7.52,9.36C46.16-8.86,85.51,14.87,51.48,52.19,53.79,60.88,62.33,62.88,70,64.88c25,12,1.65,44.18,6.06,64.84C70.2,109.45,96.07,69.66,64.27,65.13c-24.13-10.45-2.2-18.79-32.09-2.36,11-7.43,8.07-4.15,17.63-15.43-5.88,2.37-7.27,9.44-14.32,11.7a36.15,36.15,0,0,0,8.27-6.94c-2.26.34-3.29,2.51-5.12,3.6,9.79-10.82,27.78-21.09,24.12-36.95-4.71,20.33-6.23,18.33-31.57,38.73A2.51,2.51,0,0,1,32.32,55.79ZM61.11,36.31c-.33-2.06,2-3.05,1.8-5.21-3.2-2.17-6.32,16.73-.24,3.27ZM33.44,26.06c4.87-2.33,5.64-7.61,9.76-11C40.13,16.5,33.81,23.68,33.44,26.06Zm-6.7,16.81c1.51-.8,4.44-8.86,4-11.06C29.38,35.6,27.83,39.17,26.74,42.87Zm32.54-2.69c-.75.23-4.71,5.51-4.79,6.15A24.17,24.17,0,0,0,59.28,40.18Zm-5.22-28A4.37,4.37,0,0,0,51,11.93C52,11.49,52.81,13.31,54.06,12.17Zm10.12,8.71A3.66,3.66,0,0,0,63.57,18Z" transform="translate(-6.57 -10.2)"/><path d="M24.82,85c-1.65,10.86-3.52,21.43-3,32.23-1.5-4.21.06-38.66,4-33.78,11.69,20.85-12.91,42.2-8.82,64.29C11.58,127.73,34.83,105.51,24.82,85Z" transform="translate(-6.57 -10.2)"/><path d="M71.6,78.34c-3.81,17.62-5.31,35.21-6.33,53.15-.49-10,.42-25.23,2-36.72-13.74,16.27-2,34.36-2,52.4C56.81,119.38,60.16,104.63,71.6,78.34Z" transform="translate(-6.57 -10.2)"/><path d="M34,56.37c-1.9,10.14-13.48,7.49-19.28,13.29-12.84,16-4.41,40.6-6.64,59.79.22-19.11-5.67-42,4.33-59.1C18.32,62.62,30,66.12,34,56.37Z" transform="translate(-6.57 -10.2)"/><path d="M32,49c-2.15,5-4,10.88-8.85,13.16C25.79,58,29.63,53.24,32,49Z" transform="translate(-6.57 -10.2)"/><path d="M42.25,32c2.54-6,6.71-13.43,14-12.9C49,20.56,45.85,27,42.25,32Z" transform="translate(-6.57 -10.2)"/><path d="M48.39,33.09c-.22,2.62-6.41,11.52-9.62,13.77A63,63,0,0,0,48.39,33.09Z" transform="translate(-6.57 -10.2)"/><path d="M17,53.15,24.8,43C22.54,46.64,20.45,50.44,17,53.15Z" transform="translate(-6.57 -10.2)"/><path d="M55.12,84.32c-1.86-1.63-1.88-10.76-.08-13.91C54.05,74.85,53.47,80,55.12,84.32Z" transform="translate(-6.57 -10.2)"/><path d="M32.32,55.79c-2.15.49-3,3.28-4.62,3.75,1.47-3.15,6.45-5.67,8.44-9.22C35.16,52.37,33.42,53.85,32.32,55.79Z" transform="translate(-6.57 -10.2)"/><path d="M47.26,93.09c1.75,3.59,1.26,12,.15,15.74C48.16,103.59,48.6,98.34,47.26,93.09Z" transform="translate(-6.57 -10.2)"/><path d="M52.66,23.32c1.23-1.79,3.55-2.27,4.82-4.05C56.52,21.39,54.23,21.91,52.66,23.32Z" transform="translate(-6.57 -10.2)"/><path d="M26.34,32.75a21,21,0,0,1-.89,6.69C26,37.23,25.83,34.94,26.34,32.75Z" transform="translate(-6.57 -10.2)"/><path d="M45.08,36a11,11,0,0,1-2.94,5.77A27.28,27.28,0,0,0,45.08,36Z" transform="translate(-6.57 -10.2)"/><path d="M31.92,39.33c-.22-2.09,1.32-3.1,2-4.54C34.27,35.87,32.42,37.78,31.92,39.33Z" transform="translate(-6.57 -10.2)"/><path d="M54.6,17.12c1.7-1,2.34-.87,3.5.44A6.93,6.93,0,0,0,54.6,17.12Z" transform="translate(-6.57 -10.2)"/><path d="M18.22,53.41l3.14-4C20.69,50.78,19.39,53.19,18.22,53.41Z" transform="translate(-6.57 -10.2)"/><path d="M42.51,124.15a11.77,11.77,0,0,1,1.84-3.7C43.67,121.46,43.51,123.89,42.51,124.15Z" transform="translate(-6.57 -10.2)"/><path d="M38.17,27.75a7.32,7.32,0,0,1-2.62,2.05C36.44,29.13,37,28.07,38.17,27.75Z" transform="translate(-6.57 -10.2)"/><path d="M47.16,29.05a4.28,4.28,0,0,1,3-1.58C49.13,27.91,48.23,28.64,47.16,29.05Z" transform="translate(-6.57 -10.2)"/><path d="M54.5,28.48l-1.17,3.13A4.6,4.6,0,0,1,54.5,28.48Z" transform="translate(-6.57 -10.2)"/><path d="M38,21l-2.29,2.8A3.72,3.72,0,0,1,38,21Z" transform="translate(-6.57 -10.2)"/></svg>