<svg id="Ebene_1" data-name="Ebene 1" xmlns="http://www.w3.org/2000/svg" viewBox="0 0 133.77 124.23"><path d="M94.21,47.21C106,39.64,119.34,28.06,118.62,13c1-2.88,1.27,2.44,1.33,3.43,2.75-11.45-13.49-2.43-16.06,4,1-4.27,4.51-6,7.77-8.42h-2c.83-.55,2.08-.31,2.73-1.33-1.7-.63-5.14,3.44-3.62,1.16a22.27,22.27,0,0,0-7.64,4.84c2.78-4.25,8-5.76,12.61-7.18-19.89-.32-19.19,23.19-27,35.42C92.39,43,96.07,32.05,99.4,25.83c-3.16,10.27-9,19.45-18.7,24.6,4.6-3.85,8.56-8.91,9.42-15-1.38,1.61-5,9.12-5.31,7.54,6-9.68,4.39-17.71,11.89-27-2.87,2.31-4.68,5.47-6.77,8.43C106.66-11,142.07,10.39,111.45,44c2.08,7.83,9.77,9.63,16.62,11.43,22.48,10.83,1.48,39.76,5.46,58.35C128.3,95.5,151.58,59.69,123,55.62c-21.72-9.4-2-16.91-28.88-2.13,9.87-6.68,7.26-3.73,15.87-13.88-5.29,2.13-6.55,8.5-12.89,10.53a32.65,32.65,0,0,0,7.44-6.24c-2,.3-3,2.25-4.6,3.23,8.81-9.73,25-19,21.7-33.25-4.23,18.29-5.6,16.5-28.41,34.86A2.27,2.27,0,0,1,94.21,47.21Zm25.9-17.53c-.29-1.85,1.85-2.74,1.62-4.69-2.87-1.95-5.68,15.06-.21,2.94Zm-24.9-9.22c4.38-2.1,5.08-6.86,8.79-9.9C101.24,11.85,95.54,18.31,95.21,20.46Zm-6,15.12c1.35-.71,4-8,3.55-9.94C91.56,29.05,90.17,32.26,89.19,35.58Zm29.28-2.41c-.67.2-4.24,4.95-4.31,5.53A21.72,21.72,0,0,0,118.47,33.17ZM113.78,8A3.93,3.93,0,0,0,111,7.74C112,7.34,112.65,9,113.78,8Zm9.1,7.83a3.33,3.33,0,0,0-.55-2.58Z" transform="translate(-4.87 -5.71)"/><path d="M87.46,73.47c-1.49,9.77-3.17,19.28-2.67,29-1.34-3.8,0-34.8,3.63-30.41,10.52,18.77-11.62,38-7.94,57.86C75.54,112,96.46,92,87.46,73.47Z" transform="translate(-4.87 -5.71)"/><path d="M129.56,67.51c-3.43,15.85-4.78,31.69-5.69,47.83a201.74,201.74,0,0,1,1.81-33c-12.37,14.65-1.81,30.93-1.79,47.17C116.25,104.45,119.26,91.17,129.56,67.51Z" transform="translate(-4.87 -5.71)"/><path d="M95.73,47.74c-1.71,9.12-12.14,6.73-17.36,12-11.55,14.36-4,36.54-6,53.81.2-17.2-5.1-37.78,3.9-53.19C81.61,53.36,92.14,56.51,95.73,47.74Z" transform="translate(-4.87 -5.71)"/><path d="M94,41.08c-1.93,4.48-3.61,9.8-8,11.85C88.33,49.23,91.78,44.92,94,41.08Z" transform="translate(-4.87 -5.71)"/><path d="M103.15,25.78c2.28-5.37,6-12.08,12.64-11.6C109.24,15.5,106.38,21.27,103.15,25.78Z" transform="translate(-4.87 -5.71)"/><path d="M108.67,26.79c-.19,2.35-5.77,10.36-8.66,12.39A57.22,57.22,0,0,0,108.67,26.79Z" transform="translate(-4.87 -5.71)"/><path d="M80.39,44.84l7-9.16C85.41,39,83.52,42.4,80.39,44.84Z" transform="translate(-4.87 -5.71)"/><path d="M114.73,72.89c-1.67-1.47-1.69-9.68-.07-12.52C113.77,64.37,113.24,69,114.73,72.89Z" transform="translate(-4.87 -5.71)"/><path d="M94.21,47.21c-1.94.45-2.68,3-4.16,3.38,1.32-2.83,5.8-5.1,7.6-8.3C96.76,44.13,95.2,45.47,94.21,47.21Z" transform="translate(-4.87 -5.71)"/><path d="M107.65,80.79c1.58,3.22,1.14,10.77.13,14.16C108.46,90.23,108.86,85.51,107.65,80.79Z" transform="translate(-4.87 -5.71)"/><path d="M112.51,18c1.11-1.61,3.2-2,4.34-3.65C116,16.25,113.93,16.72,112.51,18Z" transform="translate(-4.87 -5.71)"/><path d="M88.83,26.48a18.87,18.87,0,0,1-.81,6C88.5,30.51,88.36,28.45,88.83,26.48Z" transform="translate(-4.87 -5.71)"/><path d="M105.69,29.44a9.94,9.94,0,0,1-2.64,5.19A24.86,24.86,0,0,0,105.69,29.44Z" transform="translate(-4.87 -5.71)"/><path d="M93.85,32.4c-.2-1.88,1.19-2.79,1.77-4.09C96,29.29,94.3,31,93.85,32.4Z" transform="translate(-4.87 -5.71)"/><path d="M114.26,12.41c1.53-.88,2.1-.78,3.15.4A6.17,6.17,0,0,0,114.26,12.41Z" transform="translate(-4.87 -5.71)"/><path d="M81.52,45.07l2.83-3.56C83.74,42.7,82.57,44.87,81.52,45.07Z" transform="translate(-4.87 -5.71)"/><path d="M103.38,108.74A10.74,10.74,0,0,1,105,105.4C104.42,106.32,104.28,108.5,103.38,108.74Z" transform="translate(-4.87 -5.71)"/><path d="M99.48,22a6.61,6.61,0,0,1-2.37,1.85C97.91,23.22,98.43,22.27,99.48,22Z" transform="translate(-4.87 -5.71)"/><path d="M107.57,23.15a3.81,3.81,0,0,1,2.71-1.42C109.33,22.12,108.52,22.78,107.57,23.15Z" transform="translate(-4.87 -5.71)"/><path d="M114.17,22.63l-1.06,2.82A4.21,4.21,0,0,1,114.17,22.63Z" transform="translate(-4.87 -5.71)"/><path d="M99.31,15.89,97.25,18.4A3.31,3.31,0,0,1,99.31,15.89Z" transform="translate(-4.87 -5.71)"/><path d="M63.78,57.27c-.1,1.21-1.16,1.44-2,1.95h0c.28-.65,1-.8,1.58-1.39-4,2-4.69-1.09-1.37-2.79-7.23,2.28-13.79,8.36-17.21,14.85-.84-1.22,2-6.89-1.31-5.35,1.68-2,1.75-2.86.88-5.41.36-1.34-3.32-5.07-3.5-3.11,1.07,3.41-.58,6.78-.44,10.22a8.74,8.74,0,0,1-.13,4.22c-.16,6.53,3,7.88-2.33,14.94,5.44-9.85,1.18-7.94,2.12-15.33-.22-4.83.91-9.59,0-14.37,1-2.78,4.4,1.22,4.58,3a36.64,36.64,0,0,1,.68,9.12c2.27-2.44,4.17-5.35,6.87-7.5.87-1.1,3-1.5,3.12-3a16,16,0,0,1,.91-7.72c-3,3.86-9.39,6.8-14,4.65,1.38-.9,11.63-4,7.69-6.38-1.68.76-3.39,1.62-3.73-1-.76.18-.55,1.16-1.34,1.26.49-1.56,1.59-4,3.53-3.77-2.87,1.93-1,5.57.58,2.56.6-1.52,2.43.34,2.17-2.54.37.25.82.32.93.86l.23-.5c.29,0,.17.6.49.37.28-1.9-4.35-3.45-5.3-5.43-1.6-1.36-1.12-3.65-2-5.15-.46-.24-.35-.54-.38-.85a1,1,0,0,1,.26-.93c.6-.82.15-2,1.06-2.79-.23.72-.54,2.59.55,1.58,1.63-2.58,4.85-2.6,7-4.33,1-8.59-6.53-13.13-14.23-9.89.09.37.52.1.62.59a5.68,5.68,0,0,0-3.33.2c.35.28.7.15,1.09.3-1.33.09-2.61-.06-3.93.74l1-.13c-2,.88-4.26,1-5.88,2.64H30c-1.1.66-2.41.7-3.13,1.89,1.94-.52,3.2-2.38,5.39-1.37A6.38,6.38,0,0,0,27,24.52c.84-.09,1.45.41,2.19.32-.7.33-1.57,0-2.18.79,0-.88-1.2-.49-1.15.19s1,.34,1.24.67c.06.36-.3.25-.49.27-1.64.55-3.62,1.13-4.26,2.86-.44.8-3.6,4.47-2,1.67-.34-.08-.4.36-.7.34-.29-.75,1.15-.8,1.16-1.58.39-1.5,2.7-2,2.6-3.42,5.48-10.91,20.07-8,29.1-14.1,1.62-1.82-.36-3.38-2-4C41.69,3.77,31.43,8,22.67,11a45.93,45.93,0,0,1,17.2-4.76,12.72,12.72,0,0,0-4.5-.52c5.72.38,15.05-.5,18.09,5.24a1,1,0,0,0,1.34.49c1.09-.73,0,1.38,1,1.53-1.18,2.61-5.37,1.43-7.12,3.32-.62-.13-.21-.36,0-.54-.53-.19-.84.2-1.22.46.37,0,1.21.6,1.25.06,4.11.93,5.58,4.69,5.62,8.54A8.75,8.75,0,0,1,54.83,31c.2-.56.86-.42,1.11-.86a3.89,3.89,0,0,1-1.16,2.17l.18.16,1.24-1.65.23.23c-.11.75-1.06,1.17-1.27,1.75.87,2.45.48,5.05,1.71,7.42,2.86,5.37-1.92,11.11-1.16,16.84C56.17,59.08,64.12,50.57,63.78,57.27ZM47.8,39c.41,2.85,8.5,4.78,5.74,7.64-.59.25-1.15.78-1.89.4-.13-.07-.23,0-.33.12-1.57.64,1.43,3,1,1.72-.35-.3-1.41-2.2-.23-1.33,1,1.12,1,1.11,2.39.59.72-.25,1.91-.45,2.16-1.18,1.53-3.41,0-7.33-1.81-10.27-1-.55-.77.54-1.44.7-.86,1.12-4.64.43-4.07,1.78A3,3,0,0,1,47.8,39Zm3.86-6.47c-6.35,2.06-4.07,8.87,1.49,3.51C51.55,35.24,51.15,34.31,51.66,32.54Zm2.65-4.33c-.64.66-.94.35-1.64.43-1.42,1-5.82,3.07-4.66,5.06.55-.33-.45-.82.51-1,1.24.86.74-1.54,1.81-.89a.37.37,0,0,0,.58-.32c.31.23.76.5,1.06,0,.1-.38.62-.11.72-.48.51.54.53-.21.77-.3.25.08-.2.49.26.47C55.27,31.25,54,29.11,54.31,28.21ZM52.47,52.37c-3.67,2,1.85-1.54,2.24-2.59l-.14-.18C51.8,52,48.33,52.9,45,54c.64.66,1.32-.05,2.07.19.32.06.66.12.74-.37,0-.14.26-.19.27-.09C48,54.83,52.63,53.11,52.47,52.37Zm11,4.35c-.17-4.21-5.92,2.06-1.8,1.35C62.37,57.79,63.64,57.65,63.51,56.72Zm-17-3.79c2.16-.29,5.08-1.32,6.42-3.13,0-.88-1.79.12-1.85.66C49.69,51.17,48.2,52.09,46.53,52.93Zm6.57-18.8c.11.18-.89-.82-.38.27C53.13,35.29,54.21,35.31,53.1,34.13Z" transform="translate(-4.87 -5.71)"/><path d="M43.64,30.33c3.44,6.68.24,15.54-8.28,13.79.09-.3.37-.14.51-.34-2.53.58-5.18-1.92-7.61-.06,0-.92,3.08-1.74,1.49-2.69.29-.22.54.19.86.24-.36-1.11.83-.49,1.25-1,0-.7,1-1,.7-1.78,1,1.28.31-1,1.29-.76.37,0,.36-.36.59-.48,0,.76,1,.58.48-.07-.16-.31.29-.29.25-.57.34,1.22.81.83.62-.37.28.16.67.48.47-.26.45.11.44.57.82.68.18-.39-.17-.65-.19-1,.5-.08,1-.19,1,.61.44-.22.28-.74.64-1,.21.21-.19.46,0,.66.43-.14.15-.72.53-.9.36.2-.24.77.27.85.69,0,.21-1.36.8-1.39.43.23-.39.93.18,1.06,2-2.23-2.79-2.49-4.2-1.48l1.47.08c-1.54-.12-2.94.64-4.45.75a11.9,11.9,0,0,0,1.56-1,10.85,10.85,0,0,0-3.51,1C32.47,33,35.94,33.6,38,32.65H37c.46-.4,1-.27,1.5-.36-1.81-.85-4.17.48-6,.79A9,9,0,0,1,42,32.87a1.07,1.07,0,0,1,.18,1.88c-.15.13-.55.21-.32.55.42.56.76-.42,1.27-.31l.94,2.15A15.24,15.24,0,0,0,43.64,30.33ZM39.11,43.17c6.15-1.73-.72-2.13.4-6.21-2.12.77-4.25,1.34-6,2.73.1.24.44,0,.61.22-.09.15-.24.23-.33.18-.36-.35-2,.38-1.7.77.1.13.16.22,0,.24-.87.08-1.34.71-1.9,1.25,3.1.45,6.42,1.76,9.6,1C39.53,43.17,39.32,43.37,39.11,43.17Zm2.53-5.26a1,1,0,0,0-.43,1.4c.36.8.07,1.3,0,1-.17-.75,1.46-.22,1-1C41.83,39.65,41.63,38.4,41.64,37.91Z" transform="translate(-4.87 -5.71)"/><path d="M59.87,60.57c-1.2,1.22-2.73,1.71-3.82,3.1,2-1.24,4.93.61,3.3,2.74,3.95-.34,3.36,3.49.93,5.44A1.77,1.77,0,0,1,62.61,73c.24,0,.15-.37.39-.27s.19.29.15.46c-.71,3.82-4.3,5.52-7.17,7.57a20.31,20.31,0,0,0-9,11.55c.7-5.92,5.77-11.1,11.08-13.47.93-.52,0-.7,0-1.25.13-.14.24,0,.36.09.33.36.64-.15,1,0-.65-.27-1-.68-.82-1.38,1.22,1.43,1.35.31,1-1.06.54.54.3,1.19.58,1.66.54-.11.5-.59.69-1,.32-.63,1-1,1.12-1.8.12-.6.21.21.36.05-.41-5.4-4.51,2-5,.23-.36-.68-1.37-.27-1.41-1.36.91-.23,1.52,1.37,2.26.67,1.34-2,4.85-3.75,3.18-6.47-3-2.37-4.38,4.44-7,4v0c1.46-.82,1.87-2.64,3.41-3.33,1-.35,1.94-2.47,1.53-3.31-3-3.3-6.67,2.55-9,4.34a1.42,1.42,0,0,0-.49-1.71C52.11,68.35,56.84,61.18,59.87,60.57Z" transform="translate(-4.87 -5.71)"/><path d="M39.62,67.19a1.52,1.52,0,0,0,.47.74c-3.94-.31-8.15-1.13-11.46-3.3-2-2.25-4.39-4.45-5.32-7.42,1.25.79-.76-3.76-.29-4.9,1.43,7.21,7.34,15.19,15.4,14.49.24.65.84.17,1.21.39Z" transform="translate(-4.87 -5.71)"/><path d="M11.42,44.81c.39-1.61,2.11-1.53,2.72-2.89.13.33,0,.63.34.65,1.36.07,2.24,1,3.2,1.8a19.9,19.9,0,0,1,5.18,11.25c-1.29-3-2.7-6.21-4-9.33-.21-.59-3.3-4-3.17-2.36.11.41-.31.36-.52.49-2.16.94-1.92,3.31-1.7,5.42-1-2-1.16-4.63.79-6,.15-.09.32-.51.36.06,2.36-1.28-2.25-1.45-2.41.58-.37.91-.3,2.26-.71,3-.71-.58.81-2.26-.09-2.67Z" transform="translate(-4.87 -5.71)"/><path d="M21.28,54.69a3.68,3.68,0,0,0-1.89-2.4,9.79,9.79,0,0,1-1.7-3.06c-.17-.39-.62-.74-.16-1.23.06,0-.09-.3-.17-.53,2.48,1,2.37,3.74,3.64,5.62,3.09,6.28-2.65,2.21-4.45-.23,1.47.66,3,2.26,4.51,2.29-.78,1.27-1.29-.18-2-.35C19.65,56.19,22.79,56.77,21.28,54.69Z" transform="translate(-4.87 -5.71)"/><path d="M54,55.43c.29.09.34-.31.67-.21-1.35,1.48-3.77,4.92-5.89,3.63-.58-.21-1.2.56-1.93.29,2.88-1.27,5.64-2.71,7.67-5.26A2.16,2.16,0,0,1,54,55.43Z" transform="translate(-4.87 -5.71)"/><path d="M42.59,15c-3.45.07-6.4,1.57-9.34,3.15a6.56,6.56,0,0,1,2-1.45,16.84,16.84,0,0,0-8.17,2.72C30.39,16.55,38.13,14.72,42.59,15Z" transform="translate(-4.87 -5.71)"/><path d="M33.82,12c1.12-.86,11.16-.83,11,.82C41.34,12.3,37.54,11,33.82,12Z" transform="translate(-4.87 -5.71)"/><path d="M11.41,44.8c-1.72,4.89,1.87,10.13,4.81,13.74-2.91-2.13-7.44-10.35-4.8-13.73Z" transform="translate(-4.87 -5.71)"/><path d="M20.08,73.59c-.36-4.15,2.17-8.66-.17-12.61C22.61,64.68,20.39,69.4,20.08,73.59Z" transform="translate(-4.87 -5.71)"/><path d="M47.88,74.72v1.43c1.22-1.14,1-2.57,1.27-3.88.36,3.12-1.94,6.35-3.6,8.53,0-1.89,2.92-3.7,2.12-6.12Z" transform="translate(-4.87 -5.71)"/><path d="M43.84,10.64c.57-.47,2.91.08,1.48.53a3.59,3.59,0,0,1,3.33,2.37c-.77-.2-1.11-1.55-2.39-1.18C45.43,12.06,44.9,10.92,43.84,10.64Z" transform="translate(-4.87 -5.71)"/><path d="M38.42,66.8a14.5,14.5,0,0,1-5.59-1.54c1.62,1.32,7-.34,6.79,1.93h0C39.4,66.53,38.84,66.87,38.42,66.8Z" transform="translate(-4.87 -5.71)"/><path d="M37.15,9.87c1.78-1.25,3.75-.73,5.71-.69.3-.07.45.24.45.47s-.26.41-.53.29A10.86,10.86,0,0,0,37.15,9.87Z" transform="translate(-4.87 -5.71)"/><path d="M13.2,20.31c0-.8,3.6-4.65,5.28-5.64C17.19,16.53,14.74,18.37,13.2,20.31Z" transform="translate(-4.87 -5.71)"/><path d="M52.54,54.38c-.86,1.32-2.73,3.24-4.39,2.8-.09-.31.25-.31.46-.34.42-.25,1-.26,1.37-.54.42-1.17,1.65-1.33,2.41-2.08Z" transform="translate(-4.87 -5.71)"/><path d="M8.72,52.12a2.34,2.34,0,0,1-.63-1.49c-.27.07-.09.3-.22.44,0-2-.71-3.76-.8-5.8C7.94,47.52,8,49.8,8.72,52.12Z" transform="translate(-4.87 -5.71)"/><path d="M55.92,60.72c-.56,0,.47.76-.46.58-.07,0,.2.45.16.72a2.23,2.23,0,0,1-.55-2.42c.33.17-.09.79.26.9,1.37,0,.4-.76.09-1.37C56.38,59,57.13,62.07,55.92,60.72Z" transform="translate(-4.87 -5.71)"/><path d="M5.3,38.1c-.66-.83-.12-4,.94-6A17.88,17.88,0,0,0,5.3,38.1Z" transform="translate(-4.87 -5.71)"/><path d="M23.37,11.8C22,12.88,20.3,13.5,19,14.68,20,13.08,21.71,12.45,23.37,11.8Z" transform="translate(-4.87 -5.71)"/><path d="M15.88,37.31c.13-1.74,1.89-2.24,2.92-3.37A14.9,14.9,0,0,1,16,37.3Z" transform="translate(-4.87 -5.71)"/><path d="M14.4,65.11c-.45-1.91-.25-3.44-1-5.21C14,58,14.51,64.24,14.4,65.11Z" transform="translate(-4.87 -5.71)"/><path d="M15.17,85.65a36.38,36.38,0,0,1,3.31-4.94h0a17.54,17.54,0,0,1-3.31,4.94Z" transform="translate(-4.87 -5.71)"/><path d="M5.72,45.4c-.72-1.5-1.11-4.32-.66-4.91,0,1.7.55,3.25.65,4.92Z" transform="translate(-4.87 -5.71)"/><path d="M11.8,55.21a20.9,20.9,0,0,1-1.31-4A10.47,10.47,0,0,1,11.8,55.21Z" transform="translate(-4.87 -5.71)"/><path d="M15.88,37.31H16c-.29,1-1.31,1.47-1.31,2.61-.33,0,0-.63-.49-.51C14.09,38.65,15.45,38,15.88,37.31Z" transform="translate(-4.87 -5.71)"/><path d="M9.54,54.85c.84,1.63,1.7,3.28,1.19,5.27A13.37,13.37,0,0,0,9.54,54.85Z" transform="translate(-4.87 -5.71)"/><path d="M9.38,26.87a6.39,6.39,0,0,1,1.52-3.41C10.07,24.51,10.19,25.9,9.38,26.87Z" transform="translate(-4.87 -5.71)"/><path d="M18.5,13.78c-1,.64-1.44,1.86-2.56,2.36A7.71,7.71,0,0,1,18.5,13.78Z" transform="translate(-4.87 -5.71)"/><path d="M54.35,71.22c-1-.11-1.38-.59-1.28-1.72.4.43.51,1.08,1.26,1.11.35,0-.31.41,0,.63Z" transform="translate(-4.87 -5.71)"/><path d="M20.68,28.9c-1.48-.48,2.5-2.42.43-.42A2.42,2.42,0,0,1,20.68,28.9Z" transform="translate(-4.87 -5.71)"/><path d="M44.93,39.45c.19.55.72,2.55,0,2.62-.26,0-.1-.28-.09-.44C45.37,40.7,44.34,40.37,44.93,39.45Z" transform="translate(-4.87 -5.71)"/><path d="M7.9,38.85A17.61,17.61,0,0,1,7.78,35l.31,3.87Z" transform="translate(-4.87 -5.71)"/><path d="M51.82,77.35c-.15-1.1.54-2,.58-3.1C52.71,75.37,51.83,76.28,51.82,77.35Z" transform="translate(-4.87 -5.71)"/><path d="M5.71,45.41a7,7,0,0,1,.94,3.65L5.72,45.4Z" transform="translate(-4.87 -5.71)"/><path d="M43.59,79.39c.41-1.18-.22-2.46.39-3.6A33,33,0,0,1,43.59,79.39Z" transform="translate(-4.87 -5.71)"/><path d="M55.29,51.63a3.28,3.28,0,0,1-1.66,1.72A8,8,0,0,1,55.29,51.63Z" transform="translate(-4.87 -5.71)"/><path d="M20.71,58.85a3.75,3.75,0,0,0,2.1,0A1.34,1.34,0,0,1,20.71,58.85Z" transform="translate(-4.87 -5.71)"/><path d="M20.58,60.47A4.42,4.42,0,0,1,17.9,59.4C18.82,59.68,19.65,60.19,20.58,60.47Z" transform="translate(-4.87 -5.71)"/><path d="M52,65.44a16.93,16.93,0,0,0-1.37-1.87A2.28,2.28,0,0,1,52,65.44Z" transform="translate(-4.87 -5.71)"/><path d="M51.81,78.67c.72-.67,1.66-1,2.38-1.68A7.36,7.36,0,0,1,51.81,78.67Z" transform="translate(-4.87 -5.71)"/><path d="M13,52.45a6.42,6.42,0,0,1,1.4,1.94c-.46-.66-1.31-1-1.38-2Z" transform="translate(-4.87 -5.71)"/><path d="M50.17,66.22c-.1-.46-.51-.85-.28-1.54-.09.77,1.56,2.11.65,2.15C50.42,66.63,50.3,66.42,50.17,66.22Z" transform="translate(-4.87 -5.71)"/><path d="M15.16,85.64c-.38,1-1.34,1.45-2,2.18L13,87.67l2.16-2Z" transform="translate(-4.87 -5.71)"/><path d="M48.93,80.55c.41-.82,1.31-1,2-1.53a6.47,6.47,0,0,1-2,1.52Z" transform="translate(-4.87 -5.71)"/><path d="M13,52.45l0,0c-.67-.5-.71-1.3-.95-2A4.54,4.54,0,0,1,13,52.45Z" transform="translate(-4.87 -5.71)"/><path d="M18.48,80.71l.75-2.88a5,5,0,0,1-.76,2.87Z" transform="translate(-4.87 -5.71)"/><path d="M10.77,56.66,10,53.88A5.56,5.56,0,0,1,10.77,56.66Z" transform="translate(-4.87 -5.71)"/><path d="M61.82,59.22c-.2.81-1.31,1.05-1.94,1.36a7.37,7.37,0,0,1,2-1.35Z" transform="translate(-4.87 -5.71)"/><path d="M48.92,80.54c-.34.82-1.17,1.12-1.74,1.69a5.4,5.4,0,0,1,1.75-1.68Z" transform="translate(-4.87 -5.71)"/><path d="M31,35.77l-1.7,1a4,4,0,0,1,1.57-1.19Z" transform="translate(-4.87 -5.71)"/><path d="M36.22,50.85a4,4,0,0,1,1.51-1.77Z" transform="translate(-4.87 -5.71)"/><path d="M45,8.2c-.81,0-1.6-.08-2.39-.14A7.06,7.06,0,0,1,45,8.2Z" transform="translate(-4.87 -5.71)"/><path d="M13.48,56.82l.09,1.83A1.67,1.67,0,0,1,13.48,56.82Z" transform="translate(-4.87 -5.71)"/><path d="M50.17,66.22c.17.38.52.65.57,1.08C50.25,67.35,49.47,66.27,50.17,66.22Z" transform="translate(-4.87 -5.71)"/><path d="M55.07,69.17c0-.53-.25-1-.3-1.69A1.71,1.71,0,0,1,55.07,69.17Z" transform="translate(-4.87 -5.71)"/><path d="M45.67,38.9a2.06,2.06,0,0,1,.8,1.7A13.83,13.83,0,0,0,45.67,38.9Z" transform="translate(-4.87 -5.71)"/><path d="M57.86,73c-.41-.31-.82-.95-.37-1.12C57.77,72.14,57.78,72.5,57.86,73Z" transform="translate(-4.87 -5.71)"/><path d="M13.49,18.5a5.26,5.26,0,0,1,1.28-1.39A4.46,4.46,0,0,1,13.49,18.5Z" transform="translate(-4.87 -5.71)"/><path d="M45.89,8.44a2.82,2.82,0,0,1,1.74.65Z" transform="translate(-4.87 -5.71)"/></svg>