<svg id="Ebene_1" data-name="Ebene 1" xmlns="http://www.w3.org/2000/svg" viewBox="0 0 128.53 137.5"><path d="M89,46.13c13-8.42,27.92-21.29,27.12-38,1.14-3.2,1.42,2.71,1.48,3.81,3.05-12.72-15-2.69-17.84,4.43,1-4.74,5-6.64,8.63-9.35h-2.18c.92-.61,2.31-.35,3-1.48-1.89-.7-5.7,3.82-4,1.29a24.6,24.6,0,0,0-8.48,5.38c3.08-4.72,8.89-6.4,14-8C88.67,3.85,89.45,30,80.74,43.57,87,41.41,91.1,29.27,94.8,22.37,91.28,33.78,84.76,44,74,49.71c5.11-4.28,9.51-9.91,10.46-16.65C83,34.86,79,43.2,78.58,41.45c6.66-10.77,4.89-19.68,13.22-30-3.2,2.57-5.2,6.08-7.52,9.36,18.58-39.31,57.93-15.58,23.9,21.74,2.31,8.69,10.86,10.69,18.47,12.69,25,12,1.65,44.18,6.07,64.84C126.91,99.78,152.78,60,121,55.47,96.84,45,118.78,36.68,88.89,53.1c11-7.42,8.06-4.14,17.63-15.42C100.64,40,99.24,47.12,92.2,49.37a35.86,35.86,0,0,0,8.27-6.93c-2.27.33-3.3,2.51-5.12,3.6,9.79-10.82,27.77-21.1,24.11-36.95-4.7,20.33-6.22,18.33-31.56,38.73A2.48,2.48,0,0,1,89,46.13Zm28.78-19.49c-.32-2.06,2-3,1.8-5.21-3.2-2.17-6.31,16.73-.23,3.28ZM90.14,16.4c4.87-2.34,5.64-7.62,9.77-11C96.84,6.84,90.51,14,90.14,16.4ZM83.45,33.2c1.51-.79,4.43-8.85,3.94-11.05C86.09,25.94,84.54,29.51,83.45,33.2ZM116,30.52c-.74.22-4.71,5.51-4.78,6.15A24.25,24.25,0,0,0,116,30.52Zm-5.21-28a4.32,4.32,0,0,0-3.08-.24C108.74,1.82,109.52,3.64,110.77,2.51Zm10.12,8.7a3.68,3.68,0,0,0-.62-2.86Z" transform="translate(-9.86 -0.54)"/><path d="M81.53,75.29c-1.66,10.87-3.52,21.43-3,32.24-1.5-4.22.05-38.67,4-33.79C94.29,94.6,69.69,116,73.78,138,68.28,118.06,91.53,95.85,81.53,75.29Z" transform="translate(-9.86 -0.54)"/><path d="M128.31,68.67c-3.82,17.62-5.32,35.21-6.33,53.16-.49-10,.41-25.23,2-36.73-13.74,16.28-2,34.36-2,52.41C113.51,109.72,116.86,95,128.31,68.67Z" transform="translate(-9.86 -0.54)"/><path d="M90.72,46.71C88.82,56.85,77.23,54.19,71.43,60,58.6,76,67,100.6,64.8,119.79c.22-19.11-5.67-42,4.33-59.1C75,53,86.74,56.46,90.72,46.71Z" transform="translate(-9.86 -0.54)"/><path d="M88.74,39.32c-2.14,5-4,10.88-8.85,13.16C82.49,48.37,86.33,43.58,88.74,39.32Z" transform="translate(-9.86 -0.54)"/><path d="M99,22.31c2.54-6,6.7-13.42,14.05-12.89C105.73,10.89,102.56,17.31,99,22.31Z" transform="translate(-9.86 -0.54)"/><path d="M105.09,23.43c-.21,2.61-6.41,11.51-9.62,13.77A62.61,62.61,0,0,0,105.09,23.43Z" transform="translate(-9.86 -0.54)"/><path d="M73.67,43.49,81.5,33.31C79.25,37,77.16,40.78,73.67,43.49Z" transform="translate(-9.86 -0.54)"/><path d="M111.82,74.65C110,73,110,63.9,111.75,60.74,110.76,65.19,110.17,70.33,111.82,74.65Z" transform="translate(-9.86 -0.54)"/><path d="M89,46.13c-2.15.49-3,3.28-4.62,3.74,1.47-3.14,6.44-5.66,8.44-9.21C91.87,42.7,90.13,44.19,89,46.13Z" transform="translate(-9.86 -0.54)"/><path d="M104,83.43c1.76,3.58,1.27,12,.15,15.74C104.86,93.92,105.31,88.68,104,83.43Z" transform="translate(-9.86 -0.54)"/><path d="M109.36,13.66c1.24-1.79,3.56-2.27,4.83-4.05C113.23,11.73,110.94,12.25,109.36,13.66Z" transform="translate(-9.86 -0.54)"/><path d="M83.05,23.08a21,21,0,0,1-.9,6.69C82.69,27.57,82.53,25.28,83.05,23.08Z" transform="translate(-9.86 -0.54)"/><path d="M101.79,26.37a11.13,11.13,0,0,1-2.94,5.77A27.76,27.76,0,0,0,101.79,26.37Z" transform="translate(-9.86 -0.54)"/><path d="M88.63,29.67c-.22-2.1,1.32-3.1,2-4.54C91,26.21,89.13,28.12,88.63,29.67Z" transform="translate(-9.86 -0.54)"/><path d="M111.31,7.46c1.69-1,2.33-.87,3.49.44A6.78,6.78,0,0,0,111.31,7.46Z" transform="translate(-9.86 -0.54)"/><path d="M74.93,43.75l3.14-4C77.4,41.12,76.09,43.53,74.93,43.75Z" transform="translate(-9.86 -0.54)"/><path d="M99.22,114.48a12,12,0,0,1,1.83-3.7C100.38,111.8,100.22,114.22,99.22,114.48Z" transform="translate(-9.86 -0.54)"/><path d="M94.88,18.08a7.38,7.38,0,0,1-2.62,2.05C93.14,19.46,93.71,18.41,94.88,18.08Z" transform="translate(-9.86 -0.54)"/><path d="M103.87,19.39a4.28,4.28,0,0,1,3-1.58C105.83,18.25,104.93,19,103.87,19.39Z" transform="translate(-9.86 -0.54)"/><path d="M111.21,18.81,110,22A4.68,4.68,0,0,1,111.21,18.81Z" transform="translate(-9.86 -0.54)"/><path d="M94.69,11.32l-2.28,2.79A3.69,3.69,0,0,1,94.69,11.32Z" transform="translate(-9.86 -0.54)"/><path d="M40,37.43c1.55-.21-2,2.1-1.88,3-.1.27-.71.5-.68,1.19,0,.44-.46-.47-.72,0a7.23,7.23,0,0,1-5.14,2.59c-.87-.62-1.34.16-1.53.53-.32.68-.65,0-.91.17-.07-1-.57-.6-1.08-.36-.74.35-1.54.08-2.31.17-.36,0-.09-1.16-1-.54-.51.36-1.34,0-2.11.85.59-1.79-.63-1.67-1.13-1.43s-.66-.28-1-.22c0-.5-.21-.44-.63-.35s-1,.09-1.19-.68c-.26-1-2.39-2.23-3.48-2,4.15-2.29-.05-2.62,4.49-6.25,1.86-2.08,4.53-3.1,6.89-4.51.52-.31.34.67.81.32s1.44-.07,1.92-.74c.16-.22.47-.22.55-.1.56.8,1.38.5,2.07.47,4.13-.25,6.79,3.24,9.29,6.15-.89,0-1-1-1.71-1-.28.45.21.88,0,1.47-.32-.54-.33-1.13-1-1.2-.82.69,1.12,1.78,1.49,2.45-.61,0-1.32-1.05-1.72-.22-.16.39-.37.83,0,1.17s.62-.19.9-.36A7.69,7.69,0,0,0,40,37.43Zm-12.93-.59a1.76,1.76,0,0,0-1.13,1.3c-2.56,9.16,11.47,4.6,5-1.86C30.29,35.62,28.12,36.28,27.07,36.84ZM25.73,43.6c-2.65-2.82-1-7.91,2.8-8.51,4.53-.86,6.72,4.46,4.08,8,3.35-.66,6.82-6.82,5.13-7.57-1.32-.58-3-2.08-5.77-2.71a11.46,11.46,0,0,0-8.56,1.57c-1.38,1-8.07,4.83-5.17,6.4.18.05.39-.11.57.11C20.55,43,23,43.23,25.73,43.6ZM27.3,31.4c.23.32-.13,1.05.64,1,.59,0,1.07-.23,1.11-.94,0-.38.53-.93,0-1.11-1.27-.39-3.39.17-2.74,1.88C27,32.25,26.89,31.56,27.3,31.4Zm-4.65,2.49c0-2-1.94,0-2.16.82C21,36.44,22.68,35.16,22.65,33.89Zm9.24-3.69c-.89.34-2.28-.53-2.16.94-.05.27-.27.66.06.78.63.19.47-.71.95-.89.35.19-.12.73.44.81C31.43,31.35,31.89,31,31.89,30.2Zm-7.48,3.53c.16-1,.31-2,1.42-2.36a.3.3,0,0,0,.12-.44C24.37,30.61,23.34,32.11,24.41,33.73Zm9-1.8c.33-.3.81-.54.91-1.06C34,29.76,32.29,32,33.45,31.93Zm3.15-.08c-.46.14-1.15,1.3-.36,1.32S37.45,32,36.6,31.85Z" transform="translate(-9.86 -0.54)"/><path d="M31.89,17.62c-1.42-.16-.19,1-1.15.92S29,18.22,28.18,18c.79-1.08-.12-1.42-.83-1.57-1.5-.46-3.12-3.29-3.81-.19-.92-.78-2.06-.75-3.17-.9,10.71-5.44,25.86,2.58,22.69,15.38C43,29.19,42,28,41.72,26.57a2.42,2.42,0,0,0-1.16-1.72c-.34-.21-.79-.62-.78-.93-.16-2.32-4.71-3.61-6.63-4.74.4-.33.74.24,1.05-.17-.47-1-1.67-.77-2.35-1.41-.09-1-.82-1.1-1.66-1.37C30.52,17.23,31.27,17.33,31.89,17.62Zm-2.31-.75c-.31-1-1.55-.74-1.71-1.92,1.21,1.33,2.53.37,3.8.63-1-.06-.71-1.53-1.67-1.53A19.78,19.78,0,0,1,26.24,14C26.78,15.76,28.2,16.12,29.58,16.87Zm7.4-.12c.27,1.46,2.31,1.32,2,3C39.43,18.51,39.21,18.2,37,16.75Z" transform="translate(-9.86 -0.54)"/><path d="M61.66,38.44c1.75.43,3,4.27,2.07,5.87-.52.9-.66,1.17-1.2,1.52,3,.64,5.29-.83,7.69-2.12-.44.86-.44,2-1.81,2-.58,0-.13.75-.55,1.08-.36-.66-.8-1.23-1.21-.06-.76-.43-1.42.17-2.14.2-1.14,0-2.35-.39-3.4.42-.74-.86-2-.57-3.14-.64-.61-.1-.84.17-1,.76a4.62,4.62,0,0,0-3.22-2.25c-.57.07-.5.74-1,1-.17-.56.27-.94.3-1.38-.81,0-3.75-1.56-3-2.47.23-.19.59,0,.66.2.93,1.65,2.86,1.64,4.37,2.34C55.15,44.28,53.88,36.68,61.66,38.44Zm-2.53,7.17c4.8.09,5.16-6.07.15-5.89C57,40.35,55,45.29,59.13,45.61Z" transform="translate(-9.86 -0.54)"/><path d="M67.88,36.64c.15-1.17-1.35-1.63-1.61-.39-.52,1.34-1.54.86-2.32.55-3.59-1-7.25-.2-10.64.78-.41,0-4.65,1.67-2.38,4.06-1.29-.73-1.49-2.36-.57-5.25.11.64-.73,2,0,2.24a1.08,1.08,0,0,0,1-1c0-.66-.5-1.4.59-1.7,0,0-.09-.67-.11-1.16.35.86.78,1,1.28.28.93-2,4.29-1.12,4.56-3,.38.19.19.8.63.73,1.13-.18,2.19.6,3.36.11a2.83,2.83,0,0,1,2.44.25c1.43.25,3.67,1.3,4.07,3l-.38.41Zm-5.62-1.38c.16.26-.25,1,.3.69s1.43-.72,1.58-1.56C64,33.13,61.92,34.19,62.26,35.26ZM57.89,35c-.14,1.42,1.67.29,1.61-.7C59.38,33,57.54,33.83,57.89,35Zm2.09.14c-.57.88.43,1.11.79.24.18-.37,1.13-1.31.44-1.53C60.35,33.44,59.77,34.26,60,35.14Z" transform="translate(-9.86 -0.54)"/><path d="M57.17,24.94c-2.51,2.76-6.62,4.56-6.46,9a.85.85,0,0,1-.54.9c-.27-2.51,1.46-4.09,1.67-6.37,1.77-4.83,7.53-10.18,13.24-9.18-1.16-.13-9.17,2.12-6.11,3.52C58,23.19,58,24.44,57.17,24.94Zm.58-3a18.13,18.13,0,0,0-4.88,5.77C54.73,26,56,23.77,57.75,21.93Z" transform="translate(-9.86 -0.54)"/><path d="M29.19,81.4l-2.57,1c5.84,2.54,8.38-5.86,13.49-1,1.76,1.76,3,3.34,5.35,4.6-2.19,0-3.93,1.12-5.9,1.17,1.36-.78,2.93-1,4.7-1.58-3.51-1.2-5-7.11-9.13-4.74a11.61,11.61,0,0,1-5.36,2.42c1.45,1.5,3,2.62,4.45,3.92-3.06-1.74-5.48-4.65-9.34-4.43l0-.37,4.15-1.23Z" transform="translate(-9.86 -0.54)"/><path d="M50.11,85.83c-3.79.28-6.21-4.16-8.22-6.73-1.4-2-3.36-1.54-5.23-1.58-2.31-.16-3.64,2-5.6,2.74,1.91-1.78,3.6-4,6.78-3.25,1.43,0,3.3-1,4.1.92,1.69,3,3.8,5.76,7.06,7.07C49.38,85.22,49.85,85.32,50.11,85.83Z" transform="translate(-9.86 -0.54)"/><path d="M50,103.37c-7.64,4.87-24.52,2.44-25.45-8.4,1.54,4.09,4.12,8.57,9,8.56C39,105.77,44.51,106,50,103.37Z" transform="translate(-9.86 -0.54)"/><path d="M41.6,46.66c.44,3.61-.77,8.72-4.28,10.26-4.49,2-5.83,5.22-4.24,8,.06.11.13.23-.09.4-2.94-4.17,1.65-8.85,5.29-10.7,1-.39.84-1.56,1.31-2.32A14.78,14.78,0,0,0,41.6,46.66Z" transform="translate(-9.86 -0.54)"/><path d="M57.17,24.94c.85-.5.82-1.75,1.8-2.14.2-1.05.66-1.52,1.87-1.28.78.15,1.4-.67,2.12-1,.33-.17.62-.47,1-.35s.67.43.2.73c-1.56,1-2.48,2.5-3.63,3.84C60.42,25.16,56.26,26.43,57.17,24.94Z" transform="translate(-9.86 -0.54)"/><path d="M47.49,57.66c8,7.83-3.93,13.4-5.17,5.52-.46.27-.31,1.13-1.17,1.1-.12-1.38,1.78-3.06,2.61-1.39.7.94.54,3.2,1.81,3.27,5.17.28,5.17-6.32,1.75-8.5C47.37,57.69,47.43,57.66,47.49,57.66Z" transform="translate(-9.86 -0.54)"/><path d="M15.13,72.38c5.62,5.87,9.13,21.58,9,21.62C21.31,86.71,20,78.67,15.13,72.38Z" transform="translate(-9.86 -0.54)"/><path d="M15.06,72.29c.32.33.79.7,1.14,1.12s.58.81.88,1.22a24.15,24.15,0,0,1,1.52,2.55A49.33,49.33,0,0,1,21,82.59c.71,1.85,1.36,3.72,1.91,5.62.28.94.54,1.9.79,2.85l.36,1.44.16.73.08.36,0,.19a.54.54,0,0,1-.11.42l-.17.18-.11-.3c-1.43-3.68-2.45-7.47-3.72-11.18a55.58,55.58,0,0,0-2.18-5.44l-.66-1.31-.72-1.27-.79-1.24A14.51,14.51,0,0,1,15.06,72.29Zm.15.18a13.52,13.52,0,0,1,.9,1l.81,1.23L17.67,76l.68,1.31a47.79,47.79,0,0,1,2.24,5.46c1.3,3.71,2.34,7.5,3.77,11.14l-.28-.12c-.09-.06-.19,0-.16.06l0-.18-.07-.36-.17-.71-.36-1.43c-.25-1-.52-1.9-.8-2.84-.57-1.88-1.17-3.75-1.86-5.59a48,48,0,0,0-2.36-5.4,13.43,13.43,0,0,0-.7-1.29c-.25-.41-.46-.86-.75-1.26S16.27,74,16,73.6,15.52,72.89,15.21,72.47Z" transform="translate(-9.86 -0.54)"/><path d="M33.87,65.94c.27-.44,1.79.5,1.79-1.39,2.91-3.69,1.8-4.43,4,.75A1.94,1.94,0,0,1,38.11,64C37.21,62,36.83,66.42,33.87,65.94Z" transform="translate(-9.86 -0.54)"/><path d="M68,37a2.4,2.4,0,0,0,2.27,2.34c-1.74,1,.76,1.77.23,2.87l0,0c-2.18-1.06-1.93-3.92-4.51-4.85a17.53,17.53,0,0,0,1.85-.74C67.9,36.76,67.94,36.89,68,37Z" transform="translate(-9.86 -0.54)"/><path d="M34.61,91c.52-.26.92.15,1.27.35,2.46,1.61,4.58.24,6.9-.93-2.5,2.57-6.35,2.78-8.15.55Z" transform="translate(-9.86 -0.54)"/><path d="M34.61,91l0,0c-1.68-.35-2.79-2.48-3.77-3.86C32.13,88.37,33.82,89.23,34.61,91Z" transform="translate(-9.86 -0.54)"/><path d="M9.86,64.38c1.22,1.82,2.19,3.78,3.5,5.54A16.91,16.91,0,0,1,9.86,64.38Z" transform="translate(-9.86 -0.54)"/><path d="M68,37c0-.13-.09-.26-.14-.4.17-.34,1-.77,1.2-.59,0,.93,1.11.87,1.21,1.6-.07.23-.58.37-.66,0C69.28,36.88,68.64,36.94,68,37Z" transform="translate(-9.86 -0.54)"/><path d="M39.58,50.66c1.13-1.56,1.08-3.44,1.53-5.19C40.79,47.25,41.16,49.22,39.58,50.66Z" transform="translate(-9.86 -0.54)"/><path d="M21,68.53l-2.5-3.92C19.83,65.6,20.32,67.13,21,68.53Z" transform="translate(-9.86 -0.54)"/><path d="M66.23,24a3.56,3.56,0,0,1,1.9-2.19C67.89,22.9,66.74,23.2,66.23,24Z" transform="translate(-9.86 -0.54)"/><path d="M70.49,42.23c1,.3,2.13-.42,3,.66-1.09,0-2.13.08-3-.68Z" transform="translate(-9.86 -0.54)"/><path d="M66,22.14l-2.08,2.53C64.13,23.18,65.15,22.72,66,22.14Z" transform="translate(-9.86 -0.54)"/><path d="M46.37,87.46l-2.56,2.15-.21-.25C44.58,88.78,45.12,87.69,46.37,87.46Z" transform="translate(-9.86 -0.54)"/><path d="M69.61,24.21a4.35,4.35,0,0,1,2.31-1.76C71.44,23.6,70.25,23.51,69.61,24.21Z" transform="translate(-9.86 -0.54)"/><path d="M41.84,42.47a4.15,4.15,0,0,1-.31,3.07Z" transform="translate(-9.86 -0.54)"/><path d="M42.76,44.93a3.54,3.54,0,0,1,.42-2.53Z" transform="translate(-9.86 -0.54)"/><path d="M21.78,69.41a3.63,3.63,0,0,1,1.14,2.34Z" transform="translate(-9.86 -0.54)"/><path d="M29.39,41.71c-3.12-.16,1-4.53,1.3-1.31C30.71,41.31,30.1,41.6,29.39,41.71Z" transform="translate(-9.86 -0.54)"/><path d="M60.49,43c0,1.09-2.22,1.51-2,.16C58.47,41.65,60.53,41.14,60.49,43Z" transform="translate(-9.86 -0.54)"/></svg>